<svg width="204px" height="169px" viewBox="0 0 204 169" version="1.1" xmlns="http://www.w3.org/2000/svg" xmlns:xlink="http://www.w3.org/1999/xlink">
    <g id="Page-1" stroke="none" stroke-width="1" fill="none" fill-rule="evenodd">
        <g id="Desktop-HD" transform="translate(-1045.000000, -384.000000)" fill="#484848" fill-rule="nonzero">
            <g id="rooms" transform="translate(0.000000, 275.000000)">
                <g id="№3" transform="translate(959.000000, 7.000000)">
                    <g id="bell-covering-hot-dish" transform="translate(86.000000, 102.000000)">
                        <path d="M151.517165,34.7368808 C156.472628,28.4927585 157.338029,20.6272953 154.021845,11.9908659 C151.653432,5.82313661 147.944716,1.40138932 147.78811,1.21643785 C146.572888,-0.220956696 144.40786,-0.411939188 142.953661,0.790245344 C141.499462,1.99142471 141.307263,4.12741311 142.518418,5.56480766 C142.685193,5.76483669 154.445901,20.0513323 146.115273,30.5493384 C134.119656,45.6681156 146.909489,65.607693 147.459644,66.4490211 C148.116576,67.453187 149.219937,68 150.34567,68 C150.984297,68 151.630043,67.8240951 152.205621,67.4562025 C153.796088,66.4389694 154.253703,64.3391672 153.224578,62.7650694 C153.118818,62.604242 142.551976,46.0339978 151.517165,34.7368808 Z" id="Path"></path>
                        <path d="M173.517396,34.7368808 C178.472603,28.4927585 179.33796,20.6272953 176.021947,11.9908659 C173.65264,5.82313661 169.944116,1.40138932 169.787518,1.21643785 C168.573375,-0.220956696 166.407442,-0.411939188 164.953318,0.790245344 C163.501228,1.99041953 163.307006,4.12640794 164.518098,5.56380249 C164.638088,5.70754194 176.462252,20.0302237 168.114767,30.5493384 C156.119769,45.6681156 168.909959,65.607693 169.460085,66.4490211 C170.116983,67.453187 171.21927,68 172.344945,68 C172.98354,68 173.629252,67.8240951 174.205817,67.4562025 C175.797219,66.4389694 176.253793,64.3391672 175.224721,62.7650694 C175.119983,62.604242 164.552671,46.0339978 173.517396,34.7368808 Z" id="Path"></path>
                        <path d="M32.5171931,36.7368808 C37.4726248,30.4927585 38.3380204,22.6272953 35.0218572,13.9908659 C32.6524429,7.82313661 28.9447671,3.40138932 28.7881621,3.21643785 C27.5729474,1.7790433 25.4089501,1.58806081 23.9537433,2.79024534 C22.5015873,3.99041953 22.3073563,6.12640794 23.5185033,7.56380249 C23.6395163,7.70754194 35.4631988,22.0302237 27.1163521,32.5493384 C15.118777,47.6681156 27.9095466,67.6066878 28.4607151,68.4490211 C29.1176429,69.453187 30.2199798,70 31.3457058,70 C31.9843291,70 32.6300708,69.8240951 33.2056452,69.4562025 C34.7971188,68.4389694 35.2537141,66.338162 34.2235782,64.7650694 C34.1188358,64.604242 23.5510446,48.0339978 32.5171931,36.7368808 Z" id="Path"></path>
                        <path d="M54.5170474,36.7368808 C59.4723952,30.4927585 60.3377761,22.6272953 57.022686,13.9908659 C54.6543288,7.82313661 50.9456988,3.40138932 50.7890964,3.21643785 C49.5739024,1.7790433 47.4099417,1.58806081 45.9547596,2.79024534 C44.5026281,3.99041953 44.3084004,6.12640794 45.5195269,7.56380249 C45.6405378,7.70754194 57.4640201,22.0302237 49.1162979,32.5493384 C37.1189259,47.6681156 49.909479,67.6066878 50.4596212,68.4490211 C51.1165378,69.453187 52.2188561,70 53.3445631,70 C53.9831755,70 54.6289063,69.8240951 55.2054879,69.4562025 C56.7969345,68.4389694 57.2535221,66.338162 56.2234036,64.7650694 C56.118663,64.604242 45.5510507,48.0339978 54.5170474,36.7368808 Z" id="Path"></path>
                        <path d="M192.800941,142.404351 L185.645098,142.404351 C183.964839,100.360398 151.008379,66.220345 109.437719,62.6154078 L109.437719,59.183228 C113.658856,56.6607705 116.2797,52.1391208 116.2797,47.1121807 C116.2797,39.3311085 109.941496,33 102.152933,33 C102.101955,33 101.899045,33 101.848067,33 C94.0585036,33 87.7212994,39.3311085 87.7212994,47.1121807 C87.7212994,52.1391208 90.3431427,56.6617691 94.5622813,59.183228 L94.5622813,62.6154078 C52.9926209,66.220345 20.035161,100.3594 18.3549022,142.404351 L11.1990592,142.404351 C5.02378362,142.404351 0,147.423303 0,153.59164 L0,157.805721 C0,163.979051 5.02378362,169 11.1980597,169 L192.80194,169 C198.977216,169 204,163.979051 204,157.805721 L204,153.59164 C203.999,147.423303 198.975217,142.404351 192.800941,142.404351 Z M94.4663237,47.1121807 C94.4663237,43.0478886 97.7768631,39.7405335 101.846068,39.7405335 C101.898045,39.7405335 102.099956,39.7405335 102.150933,39.7405335 C106.220138,39.7405335 109.530678,43.0478886 109.530678,47.1121807 C109.530678,50.1509131 107.685492,52.8391377 104.829752,53.9585655 C103.538321,54.4648545 102.689696,55.7101057 102.689696,57.0961591 L102.689696,62.2998509 L101.307306,62.2998509 L101.307306,57.0961591 C101.307306,55.7101057 100.45768,54.4658531 99.1672497,53.9585655 C96.3115096,52.8381391 94.4663237,50.1509131 94.4663237,47.1121807 Z M192.800941,162.258468 L11.1970601,162.258468 C8.74214317,162.258468 6.74602381,160.260274 6.74602381,157.804723 L6.74602381,153.590641 C6.74602381,151.139084 8.74314273,149.144885 11.1970601,149.144885 L16.7436131,149.144885 C16.7745994,149.145883 16.8035867,149.149878 16.834573,149.149878 L137.983125,149.149878 C139.845304,149.149878 141.356637,147.640997 141.356637,145.779611 C141.356637,143.919224 139.845304,142.409344 137.983125,142.409344 L25.1109217,142.409344 C26.8761429,101.75444 60.4513303,69.2031559 101.535205,69.0393859 L102.462796,69.0393859 C143.54767,69.2031559 177.120858,101.753442 178.887079,142.409344 L159.803498,142.409344 C157.94032,142.409344 156.429987,143.919224 156.429987,145.779611 C156.429987,147.640997 157.94032,149.149878 159.803498,149.149878 L185.855005,149.144885 L192.799941,149.144885 C195.254858,149.144885 197.250978,151.139084 197.250978,153.590641 L197.250978,157.804723 L197.251977,157.804723 C197.251977,160.260274 195.254858,162.258468 192.800941,162.258468 Z" id="Shape"></path>
                    </g>
                </g>
            </g>
        </g>
    </g>
</svg>
