<svg width="1440px" height="5330px" viewBox="0 0 1440 5330" version="1.1" xmlns="http://www.w3.org/2000/svg" xmlns:xlink="http://www.w3.org/1999/xlink">
    <g id="Page-1" stroke="none" stroke-width="1" fill="none" fill-rule="evenodd">
        <g id="creative_startup_website" transform="translate(0.000000, -967.000000)" fill-rule="nonzero">
            <g id="Background" transform="translate(-199.000000, 967.000000)">
                <g id="Circle" transform="translate(78.000000, 0.000000)">
                    <circle id="Oval-2" fill="#EB5B49" cx="1582.5" cy="723.5" r="93.5"></circle>
                    <circle id="Oval-2" fill="#EB5B49" cx="93.5" cy="1569.5" r="93.5"></circle>
                    <circle id="Oval-2" fill="#283583" cx="1582.5" cy="4198.5" r="75.5"></circle>
                    <circle id="Oval-2" fill="#283583" cx="287" cy="761" r="18"></circle>
                    <circle id="Oval-2" fill="#000000" cx="1395" cy="839" r="14"></circle>
                    <circle id="Oval-2" fill="#EB5B49" cx="1395" cy="14" r="14"></circle>
                    <circle id="Oval-2" fill="#EB5B49" cx="1297" cy="1527" r="14"></circle>
                    <circle id="Oval-2" fill="#283583" cx="387" cy="1706" r="21"></circle>
                    <circle id="Oval-2" fill="#EB5B49" cx="1296.5" cy="2805.5" r="14.5"></circle>
                    <circle id="Oval-2" fill="#000000" cx="1296.5" cy="4467.5" r="14.5"></circle>
                    <circle id="Oval-2" fill="#EB5B49" cx="1425.5" cy="5251.5" r="14.5"></circle>
                    <circle id="Oval-2" fill="#000000" cx="283.5" cy="5315.5" r="14.5"></circle>
                    <circle id="Oval-2" fill="#283583" cx="326.5" cy="4328.5" r="8.5"></circle>
                </g>
                <g id="BG" transform="translate(1487.000000, 4662.000000)">
                    <rect id="Rectangle-2" fill="#EB5B49" transform="translate(120.208153, 241.208153) rotate(-45.000000) translate(-120.208153, -241.208153) " x="-26.2918472" y="217.708153" width="293" height="47" rx="21"></rect>
                    <path d="M148.119841,258.400541 L252.911688,258.400541 C264.509668,258.400541 273.911688,267.802561 273.911688,279.400541 L273.911688,284.400541 C273.911688,295.998521 264.509668,305.400541 252.911688,305.400541 L148.119841,305.400541 C136.521861,305.400541 127.119841,295.998521 127.119841,284.400541 L127.119841,279.400541 C127.119841,267.802561 136.521861,258.400541 148.119841,258.400541 Z" id="Rectangle-2" fill="#283583" transform="translate(200.515765, 281.900541) rotate(-45.000000) translate(-200.515765, -281.900541) "></path>
                    <circle id="Oval" fill="#283583" cx="62.5" cy="385.5" r="24.5"></circle>
                    <circle id="Oval" fill="#000000" cx="63" cy="176" r="13"></circle>
                    <path d="M101.119841,66.0157646 L205.911688,66.0157646 C217.509668,66.0157646 226.911688,75.4177849 226.911688,87.0157646 L226.911688,92.0157646 C226.911688,103.613744 217.509668,113.015765 205.911688,113.015765 L101.119841,113.015765 C89.5218613,113.015765 80.119841,103.613744 80.119841,92.0157646 L80.119841,87.0157646 C80.119841,75.4177849 89.5218613,66.0157646 101.119841,66.0157646 Z" id="Rectangle-2" fill="#EB5B49" transform="translate(153.515765, 89.515765) rotate(-45.000000) translate(-153.515765, -89.515765) "></path>
                </g>
                <g id="BG" transform="translate(1465.000000, 1634.000000)">
                    <rect id="Rectangle-2" fill="#EB5B49" transform="translate(120.208153, 241.208153) rotate(-45.000000) translate(-120.208153, -241.208153) " x="-26.2918472" y="217.708153" width="293" height="47" rx="21"></rect>
                    <path d="M148.119841,258.400541 L252.911688,258.400541 C264.509668,258.400541 273.911688,267.802561 273.911688,279.400541 L273.911688,284.400541 C273.911688,295.998521 264.509668,305.400541 252.911688,305.400541 L148.119841,305.400541 C136.521861,305.400541 127.119841,295.998521 127.119841,284.400541 L127.119841,279.400541 C127.119841,267.802561 136.521861,258.400541 148.119841,258.400541 Z" id="Rectangle-2" fill="#283583" transform="translate(200.515765, 281.900541) rotate(-45.000000) translate(-200.515765, -281.900541) "></path>
                    <circle id="Oval" fill="#283583" cx="62.5" cy="385.5" r="24.5"></circle>
                    <circle id="Oval" fill="#000000" cx="63" cy="176" r="13"></circle>
                    <path d="M101.119841,66.0157646 L205.911688,66.0157646 C217.509668,66.0157646 226.911688,75.4177849 226.911688,87.0157646 L226.911688,92.0157646 C226.911688,103.613744 217.509668,113.015765 205.911688,113.015765 L101.119841,113.015765 C89.5218613,113.015765 80.119841,103.613744 80.119841,92.0157646 L80.119841,87.0157646 C80.119841,75.4177849 89.5218613,66.0157646 101.119841,66.0157646 Z" id="Rectangle-2" fill="#EB5B49" transform="translate(153.515765, 89.515765) rotate(-45.000000) translate(-153.515765, -89.515765) "></path>
                </g>
                <g id="Form" transform="translate(0.000000, 3122.000000)">
                    <rect id="Rectangle-2" fill="#EB5B49" transform="translate(120.208153, 241.208153) rotate(-45.000000) translate(-120.208153, -241.208153) " x="-26.2918472" y="217.708153" width="293" height="47" rx="21"></rect>
                    <path d="M148.119841,258.400541 L252.911688,258.400541 C264.509668,258.400541 273.911688,267.802561 273.911688,279.400541 L273.911688,284.400541 C273.911688,295.998521 264.509668,305.400541 252.911688,305.400541 L148.119841,305.400541 C136.521861,305.400541 127.119841,295.998521 127.119841,284.400541 L127.119841,279.400541 C127.119841,267.802561 136.521861,258.400541 148.119841,258.400541 Z" id="Rectangle-2" fill="#283583" transform="translate(200.515765, 281.900541) rotate(-45.000000) translate(-200.515765, -281.900541) "></path>
                    <path d="M278.040151,72.9045456 L321.92031,72.9045456 C333.51829,72.9045456 342.92031,82.3065658 342.92031,93.9045456 L342.92031,98.9045456 C342.92031,110.502525 333.51829,119.904546 321.92031,119.904546 L278.040151,119.904546 C266.442172,119.904546 257.040151,110.502525 257.040151,98.9045456 L257.040151,93.9045456 C257.040151,82.3065658 266.442172,72.9045456 278.040151,72.9045456 Z" id="Rectangle-2" fill="#000000" transform="translate(299.980231, 96.404546) rotate(-45.000000) translate(-299.980231, -96.404546) "></path>
                    <circle id="Oval" fill="#283583" cx="309.5" cy="188.5" r="24.5"></circle>
                    <circle id="Oval" fill="#000000" cx="258" cy="13" r="13"></circle>
                    <path d="M101.119841,66.0157646 L205.911688,66.0157646 C217.509668,66.0157646 226.911688,75.4177849 226.911688,87.0157646 L226.911688,92.0157646 C226.911688,103.613744 217.509668,113.015765 205.911688,113.015765 L101.119841,113.015765 C89.5218613,113.015765 80.119841,103.613744 80.119841,92.0157646 L80.119841,87.0157646 C80.119841,75.4177849 89.5218613,66.0157646 101.119841,66.0157646 Z" id="Rectangle-2" fill="#EB5B49" transform="translate(153.515765, 89.515765) rotate(-45.000000) translate(-153.515765, -89.515765) "></path>
                </g>
                <circle id="Oval-2" fill="#283583" cx="171.5" cy="270.5" r="93.5"></circle>
            </g>
        </g>
    </g>
</svg>
